<svg width="16" height="16" viewBox="0 0 16 16" fill="none" xmlns="http://www.w3.org/2000/svg">
<path d="M9.99998 1.33337H5.99998C5.63179 1.33337 5.33331 1.63185 5.33331 2.00004V3.33337C5.33331 3.70156 5.63179 4.00004 5.99998 4.00004H9.99998C10.3682 4.00004 10.6666 3.70156 10.6666 3.33337V2.00004C10.6666 1.63185 10.3682 1.33337 9.99998 1.33337Z" stroke="white" stroke-width="1.33333" stroke-linecap="round" stroke-linejoin="round"/>
<path d="M10.6667 2.66663H12C12.3536 2.66663 12.6928 2.8071 12.9428 3.05715C13.1929 3.3072 13.3334 3.64634 13.3334 3.99996V13.3333C13.3334 13.6869 13.1929 14.0261 12.9428 14.2761C12.6928 14.5262 12.3536 14.6666 12 14.6666H4.00002C3.6464 14.6666 3.30726 14.5262 3.05721 14.2761C2.80716 14.0261 2.66669 13.6869 2.66669 13.3333V3.99996C2.66669 3.64634 2.80716 3.3072 3.05721 3.05715C3.30726 2.8071 3.6464 2.66663 4.00002 2.66663H5.33335" stroke="white" stroke-width="1.33333" stroke-linecap="round" stroke-linejoin="round"/>
<path d="M6 9.33333L7.33333 10.6667L10 8" stroke="white" stroke-width="1.33333" stroke-linecap="round" stroke-linejoin="round"/>
</svg>
