<svg width="16" height="16" viewBox="0 0 16 16" fill="none" xmlns="http://www.w3.org/2000/svg">
<path d="M3.99998 9.33328L4.99998 7.39994C5.10869 7.18404 5.27406 7.00175 5.47839 6.87257C5.68271 6.7434 5.91831 6.67221 6.15998 6.66661H13.3333M13.3333 6.66661C13.537 6.66625 13.7381 6.71257 13.9211 6.802C14.1041 6.89143 14.2642 7.0216 14.389 7.18252C14.5139 7.34344 14.6002 7.53083 14.6414 7.73031C14.6826 7.92979 14.6776 8.13606 14.6266 8.33328L13.6 12.3333C13.5257 12.621 13.3574 12.8756 13.1219 13.0568C12.8864 13.238 12.5971 13.3353 12.3 13.3333H2.66665C2.31302 13.3333 1.97389 13.1928 1.72384 12.9428C1.47379 12.6927 1.33331 12.3536 1.33331 11.9999V3.33328C1.33331 2.97965 1.47379 2.64051 1.72384 2.39047C1.97389 2.14042 2.31302 1.99994 2.66665 1.99994H5.26665C5.48964 1.99776 5.70962 2.05153 5.90645 2.15636C6.10328 2.26118 6.27067 2.41369 6.39331 2.59994L6.93331 3.39994C7.05472 3.5843 7.22 3.73562 7.41431 3.84034C7.60863 3.94507 7.82591 3.99991 8.04665 3.99994H12C12.3536 3.99994 12.6927 4.14042 12.9428 4.39047C13.1928 4.64051 13.3333 4.97965 13.3333 5.33328V6.66661Z" stroke="white" stroke-width="1.33333" stroke-linecap="round" stroke-linejoin="round"/>
</svg>
